<svg xmlns="http://www.w3.org/2000/svg" width="316" height="10" viewBox="0 0 316 10" fill="none">
  <path d="M7.25796 7.60029C7.62336 7.57881 7.99315 7.55985 8.37014 7.54052C8.81596 7.51766 9.27188 7.49429 9.74259 7.46561L9.74266 7.4656C14.18 7.19511 18.6381 6.98769 23.11 6.77961C24.4219 6.71858 25.7349 6.65748 27.049 6.59473C38.8062 6.03354 50.5758 5.52609 62.3579 5.07236L62.3584 5.07234C103.931 3.46298 145.831 2.46835 187.577 2.42398C188.196 2.42341 188.815 2.42293 189.433 2.42255C166.72 2.63378 144.013 3.00927 121.358 3.53595C100.897 4.00682 80.4654 4.65998 60.0581 5.40435L60.0578 5.40436C49.8506 5.77791 39.6505 6.18994 29.4574 6.64046L7.25796 7.60029ZM7.25796 7.60029C8.76695 7.62971 10.3356 7.54374 11.9721 7.45405C12.5987 7.41971 13.2352 7.38483 13.8822 7.35566L13.8833 7.35562C16.2753 7.24892 18.6869 7.13616 21.1026 7.02321C23.8896 6.89289 26.6822 6.76231 29.4567 6.64049L7.25796 7.60029ZM2.24025 6.59545C2.23228 6.59074 2.22435 6.58601 2.21644 6.58126L2.21762 6.57858C2.22216 6.58168 2.22993 6.58725 2.24025 6.59545ZM2.21307 6.57562C2.21311 6.57561 2.21431 6.57635 2.21655 6.57786C2.21415 6.57639 2.21302 6.57563 2.21307 6.57562ZM2.19269 8.61077C2.19265 8.61075 2.19376 8.60977 2.19612 8.60786C2.1939 8.60982 2.19272 8.61078 2.19269 8.61077Z" fill="#ED5A5E" stroke="white" stroke-width="4.5"/>
</svg>