<svg width="40" height="40" viewBox="0 0 40 40" fill="none" xmlns="http://www.w3.org/2000/svg">
<g id="fe:quote-left">
<g id="feQuoteLeft0">
<g id="feQuoteLeft1">
<path id="feQuoteLeft2" fill-rule="evenodd" clip-rule="evenodd" d="M11.6667 35C9.89856 35 8.20286 34.2976 6.95262 33.0474C5.70238 31.7971 5 30.1014 5 28.3333C5 25.8783 7.22167 18.1 11.6667 5H15L11.6667 21.6667C13.4348 21.6667 15.1305 22.369 16.3807 23.6193C17.631 24.8695 18.3333 26.5652 18.3333 28.3333C18.3333 30.1014 17.631 31.7971 16.3807 33.0474C15.1305 34.2976 13.4348 35 11.6667 35ZM28.3333 35C26.5652 35 24.8695 34.2976 23.6193 33.0474C22.369 31.7971 21.6667 30.1014 21.6667 28.3333C21.6667 25.8783 23.8883 18.1 28.3333 5H31.6667L28.3333 21.6667C30.1014 21.6667 31.7971 22.369 33.0474 23.6193C34.2976 24.8695 35 26.5652 35 28.3333C35 30.1014 34.2976 31.7971 33.0474 33.0474C31.7971 34.2976 30.1014 35 28.3333 35Z" fill="black"/>
</g>
</g>
</g>
</svg>
